<svg xmlns="http://www.w3.org/2000/svg" xmlns:xlink="http://www.w3.org/1999/xlink" width="200" zoomAndPan="magnify" viewBox="0 0 150 149.999998" height="200" preserveAspectRatio="xMidYMid meet" version="1.0"><defs><g/><clipPath id="66c5a4cdbc"><path d="M 40 67 L 95 67 L 95 95.808594 L 40 95.808594 Z M 40 67 " clip-rule="nonzero"/></clipPath><clipPath id="e950e4961a"><path d="M 94 51 L 113.117188 51 L 113.117188 71 L 94 71 Z M 94 51 " clip-rule="nonzero"/></clipPath><clipPath id="760d6b2572"><path d="M 39.617188 41.058594 L 95 41.058594 L 95 95.808594 L 39.617188 95.808594 Z M 39.617188 41.058594 " clip-rule="nonzero"/></clipPath></defs><g clip-path="url(#66c5a4cdbc)"><path fill="#008ecd" d="M 94.070312 71.023438 C 92.769531 84.925781 81.113281 95.804688 66.921875 95.804688 C 53.824219 95.804688 42.890625 86.535156 40.257812 74.179688 C 40.503906 72.164062 41.414062 69.402344 44.359375 67.921875 C 49.351562 65.417969 55.667969 72.855469 60.425781 77.785156 C 65.183594 82.71875 73.585938 88.257812 83.582031 84.65625 C 90.671875 82.101562 93.574219 75.378906 94.070312 71.023438 Z M 94.070312 71.023438 " fill-opacity="1" fill-rule="evenodd"/></g><g clip-path="url(#e950e4961a)"><path fill="#0a6e87" d="M 109.109375 69.761719 L 109.765625 69.097656 L 109.585938 65.886719 L 110.703125 64.753906 C 110.886719 64.570312 110.882812 64.273438 110.703125 64.089844 C 110.519531 63.90625 110.222656 63.910156 110.042969 64.09375 L 109.511719 64.628906 L 109.332031 61.4375 L 110.277344 60.480469 C 110.457031 60.300781 110.457031 60 110.273438 59.820312 C 110.089844 59.636719 109.792969 59.636719 109.613281 59.820312 L 109.261719 60.179688 L 109.113281 57.554688 C 111.644531 54.855469 113.613281 52.074219 112.957031 51.417969 C 112.300781 50.765625 109.542969 52.761719 106.871094 55.324219 L 104.257812 55.195312 L 104.609375 54.839844 C 104.792969 54.65625 104.789062 54.359375 104.609375 54.175781 C 104.425781 53.996094 104.128906 53.996094 103.949219 54.179688 L 103.003906 55.136719 L 99.824219 54.980469 L 100.355469 54.445312 C 100.535156 54.261719 100.535156 53.964844 100.351562 53.785156 C 100.167969 53.601562 99.871094 53.601562 99.691406 53.785156 L 98.570312 54.917969 L 95.371094 54.761719 L 94.714844 55.425781 L 103.605469 58.773438 C 100.988281 61.742188 98.480469 64.914062 98.480469 64.914062 L 94.519531 64.699219 L 94.113281 65.226562 L 96.875 67.042969 L 96.636719 67.925781 L 97.511719 67.679688 L 99.34375 70.4375 L 99.867188 70.023438 L 99.625 66.050781 C 99.625 66.050781 102.765625 63.511719 105.699219 60.859375 L 109.105469 69.757812 Z M 109.109375 69.761719 " fill-opacity="1" fill-rule="evenodd"/></g><g clip-path="url(#760d6b2572)"><path fill="#00ccff" d="M 94.007812 65.1875 C 92.410156 51.597656 80.894531 41.058594 66.921875 41.058594 C 51.859375 41.058594 39.648438 53.3125 39.648438 68.429688 C 39.648438 69.183594 39.679688 69.925781 39.738281 70.660156 C 40.128906 60.015625 46.316406 55.191406 55.238281 56.824219 C 64.25 58.476562 71.308594 68.199219 81.742188 70.503906 C 87.089844 71.6875 92.003906 69.667969 94.007812 65.1875 Z M 92.683594 75.980469 C 86.578125 81.011719 74.070312 79.234375 62.773438 68.941406 C 49.613281 56.953125 41.445312 61.878906 39.753906 70.847656 C 40.972656 84.832031 52.671875 95.804688 66.925781 95.804688 C 53.828125 95.804688 42.890625 86.535156 40.257812 74.179688 C 40.507812 72.164062 41.414062 69.402344 44.359375 67.921875 C 49.351562 65.417969 55.671875 72.855469 60.429688 77.785156 C 65.1875 82.71875 73.585938 88.257812 83.582031 84.65625 C 88.285156 82.960938 91.144531 79.433594 92.683594 75.980469 Z M 92.683594 75.980469 " fill-opacity="1" fill-rule="evenodd"/></g><g fill="#424141" fill-opacity="1"><g transform="translate(30.848264, 106.166067)"><g><path d="M 1.828125 -4.53125 L 0.03125 -4.53125 L 0.03125 -6.140625 L 5.703125 -6.140625 L 5.703125 -4.53125 L 3.90625 -4.53125 L 3.90625 0 L 1.828125 0 Z M 1.828125 -4.53125 "/></g></g></g><g fill="#424141" fill-opacity="1"><g transform="translate(36.407507, 106.166067)"><g><path d="M 3.71875 0.140625 C 3.050781 0.140625 2.453125 0.00390625 1.921875 -0.265625 C 1.398438 -0.546875 0.988281 -0.925781 0.6875 -1.40625 C 0.394531 -1.894531 0.25 -2.445312 0.25 -3.0625 C 0.25 -3.675781 0.394531 -4.226562 0.6875 -4.71875 C 0.988281 -5.207031 1.398438 -5.585938 1.921875 -5.859375 C 2.453125 -6.140625 3.050781 -6.28125 3.71875 -6.28125 C 4.375 -6.28125 4.960938 -6.140625 5.484375 -5.859375 C 6.015625 -5.585938 6.425781 -5.207031 6.71875 -4.71875 C 7.019531 -4.226562 7.171875 -3.675781 7.171875 -3.0625 C 7.171875 -2.445312 7.019531 -1.894531 6.71875 -1.40625 C 6.425781 -0.925781 6.015625 -0.546875 5.484375 -0.265625 C 4.960938 0.00390625 4.375 0.140625 3.71875 0.140625 Z M 3.71875 -1.53125 C 3.976562 -1.53125 4.207031 -1.59375 4.40625 -1.71875 C 4.613281 -1.84375 4.78125 -2.019531 4.90625 -2.25 C 5.03125 -2.488281 5.09375 -2.757812 5.09375 -3.0625 C 5.09375 -3.375 5.03125 -3.644531 4.90625 -3.875 C 4.78125 -4.101562 4.613281 -4.28125 4.40625 -4.40625 C 4.207031 -4.539062 3.976562 -4.609375 3.71875 -4.609375 C 3.457031 -4.609375 3.222656 -4.539062 3.015625 -4.40625 C 2.804688 -4.28125 2.640625 -4.101562 2.515625 -3.875 C 2.398438 -3.644531 2.34375 -3.375 2.34375 -3.0625 C 2.34375 -2.757812 2.398438 -2.488281 2.515625 -2.25 C 2.640625 -2.019531 2.804688 -1.84375 3.015625 -1.71875 C 3.222656 -1.59375 3.457031 -1.53125 3.71875 -1.53125 Z M 3.71875 -1.53125 "/></g></g></g><g fill="#424141" fill-opacity="1"><g transform="translate(43.667844, 106.166067)"><g><path d="M 3.4375 0.140625 C 2.5 0.140625 1.765625 -0.113281 1.234375 -0.625 C 0.710938 -1.132812 0.453125 -1.847656 0.453125 -2.765625 L 0.453125 -6.140625 L 2.515625 -6.140625 L 2.515625 -2.828125 C 2.515625 -2.367188 2.59375 -2.035156 2.75 -1.828125 C 2.914062 -1.628906 3.148438 -1.53125 3.453125 -1.53125 C 3.753906 -1.53125 3.984375 -1.628906 4.140625 -1.828125 C 4.304688 -2.035156 4.390625 -2.367188 4.390625 -2.828125 L 4.390625 -6.140625 L 6.421875 -6.140625 L 6.421875 -2.765625 C 6.421875 -1.847656 6.15625 -1.132812 5.625 -0.625 C 5.101562 -0.113281 4.375 0.140625 3.4375 0.140625 Z M 3.4375 0.140625 "/></g></g></g><g fill="#424141" fill-opacity="1"><g transform="translate(50.366996, 106.166067)"><g><path d="M 3.125 -1.546875 L 2.5625 -1.546875 L 2.5625 0 L 0.5 0 L 0.5 -6.140625 L 3.453125 -6.140625 C 4.015625 -6.140625 4.503906 -6.046875 4.921875 -5.859375 C 5.347656 -5.671875 5.675781 -5.398438 5.90625 -5.046875 C 6.132812 -4.691406 6.25 -4.285156 6.25 -3.828125 C 6.25 -3.390625 6.148438 -3.003906 5.953125 -2.671875 C 5.753906 -2.347656 5.46875 -2.085938 5.09375 -1.890625 L 6.375 0 L 4.171875 0 Z M 4.15625 -3.828125 C 4.15625 -4.046875 4.085938 -4.21875 3.953125 -4.34375 C 3.816406 -4.476562 3.609375 -4.546875 3.328125 -4.546875 L 2.5625 -4.546875 L 2.5625 -3.109375 L 3.328125 -3.109375 C 3.609375 -3.109375 3.816406 -3.171875 3.953125 -3.296875 C 4.085938 -3.421875 4.15625 -3.597656 4.15625 -3.828125 Z M 4.15625 -3.828125 "/></g></g></g><g fill="#424141" fill-opacity="1"><g transform="translate(56.724177, 106.166067)"><g/></g></g><g fill="#424141" fill-opacity="1"><g transform="translate(59.17936, 106.166067)"><g><path d="M 4.6875 -1.0625 L 2.34375 -1.0625 L 1.9375 0 L -0.171875 0 L 2.515625 -6.140625 L 4.546875 -6.140625 L 7.234375 0 L 5.09375 0 Z M 4.109375 -2.5625 L 3.515625 -4.109375 L 2.921875 -2.5625 Z M 4.109375 -2.5625 "/></g></g></g><g fill="#424141" fill-opacity="1"><g transform="translate(66.071422, 106.166067)"><g><path d="M 6.546875 -6.140625 L 6.546875 0 L 4.84375 0 L 2.515625 -2.78125 L 2.515625 0 L 0.5 0 L 0.5 -6.140625 L 2.203125 -6.140625 L 4.53125 -3.34375 L 4.53125 -6.140625 Z M 6.546875 -6.140625 "/></g></g></g><g fill="#424141" fill-opacity="1"><g transform="translate(72.945949, 106.166067)"><g><path d="M 0.5 -6.140625 L 3.53125 -6.140625 C 4.207031 -6.140625 4.804688 -6.015625 5.328125 -5.765625 C 5.859375 -5.515625 6.265625 -5.15625 6.546875 -4.6875 C 6.835938 -4.226562 6.984375 -3.6875 6.984375 -3.0625 C 6.984375 -2.4375 6.835938 -1.894531 6.546875 -1.4375 C 6.265625 -0.976562 5.859375 -0.625 5.328125 -0.375 C 4.804688 -0.125 4.207031 0 3.53125 0 L 0.5 0 Z M 3.4375 -1.609375 C 3.882812 -1.609375 4.238281 -1.734375 4.5 -1.984375 C 4.769531 -2.242188 4.90625 -2.601562 4.90625 -3.0625 C 4.90625 -3.53125 4.769531 -3.890625 4.5 -4.140625 C 4.238281 -4.390625 3.882812 -4.515625 3.4375 -4.515625 L 2.5625 -4.515625 L 2.5625 -1.609375 Z M 3.4375 -1.609375 "/></g></g></g><g fill="#424141" fill-opacity="1"><g transform="translate(80.013376, 106.166067)"><g/></g></g><g fill="#424141" fill-opacity="1"><g transform="translate(82.468562, 106.166067)"><g><path d="M 1.828125 -4.53125 L 0.03125 -4.53125 L 0.03125 -6.140625 L 5.703125 -6.140625 L 5.703125 -4.53125 L 3.90625 -4.53125 L 3.90625 0 L 1.828125 0 Z M 1.828125 -4.53125 "/></g></g></g><g fill="#424141" fill-opacity="1"><g transform="translate(88.027806, 106.166067)"><g><path d="M 3.125 -1.546875 L 2.5625 -1.546875 L 2.5625 0 L 0.5 0 L 0.5 -6.140625 L 3.453125 -6.140625 C 4.015625 -6.140625 4.503906 -6.046875 4.921875 -5.859375 C 5.347656 -5.671875 5.675781 -5.398438 5.90625 -5.046875 C 6.132812 -4.691406 6.25 -4.285156 6.25 -3.828125 C 6.25 -3.390625 6.148438 -3.003906 5.953125 -2.671875 C 5.753906 -2.347656 5.46875 -2.085938 5.09375 -1.890625 L 6.375 0 L 4.171875 0 Z M 4.15625 -3.828125 C 4.15625 -4.046875 4.085938 -4.21875 3.953125 -4.34375 C 3.816406 -4.476562 3.609375 -4.546875 3.328125 -4.546875 L 2.5625 -4.546875 L 2.5625 -3.109375 L 3.328125 -3.109375 C 3.609375 -3.109375 3.816406 -3.171875 3.953125 -3.296875 C 4.085938 -3.421875 4.15625 -3.597656 4.15625 -3.828125 Z M 4.15625 -3.828125 "/></g></g></g><g fill="#424141" fill-opacity="1"><g transform="translate(94.384988, 106.166067)"><g><path d="M 4.6875 -1.0625 L 2.34375 -1.0625 L 1.9375 0 L -0.171875 0 L 2.515625 -6.140625 L 4.546875 -6.140625 L 7.234375 0 L 5.09375 0 Z M 4.109375 -2.5625 L 3.515625 -4.109375 L 2.921875 -2.5625 Z M 4.109375 -2.5625 "/></g></g></g><g fill="#424141" fill-opacity="1"><g transform="translate(101.277053, 106.166067)"><g><path d="M 7.0625 -6.140625 L 4.46875 0 L 2.421875 0 L -0.171875 -6.140625 L 2.0625 -6.140625 L 3.53125 -2.546875 L 5.015625 -6.140625 Z M 7.0625 -6.140625 "/></g></g></g><g fill="#424141" fill-opacity="1"><g transform="translate(107.993745, 106.166067)"><g><path d="M 5.59375 -1.5625 L 5.59375 0 L 0.5 0 L 0.5 -6.140625 L 5.484375 -6.140625 L 5.484375 -4.578125 L 2.53125 -4.578125 L 2.53125 -3.859375 L 5.125 -3.859375 L 5.125 -2.359375 L 2.53125 -2.359375 L 2.53125 -1.5625 Z M 5.59375 -1.5625 "/></g></g></g><g fill="#424141" fill-opacity="1"><g transform="translate(113.719588, 106.166067)"><g><path d="M 0.5 -6.140625 L 2.5625 -6.140625 L 2.5625 -1.609375 L 5.34375 -1.609375 L 5.34375 0 L 0.5 0 Z M 0.5 -6.140625 "/></g></g></g></svg>